<svg width="31" height="31" viewBox="0 0 31 31" fill="none" xmlns="http://www.w3.org/2000/svg">
<g clip-path="url(#clip0)">
<path d="M5.97575 0.454102C5.63293 0.454102 5.35811 0.738732 5.37052 1.08137C5.69741 10.0831 6.40061 18.3441 8.1317 28.25H12.8103H18.1896H22.8682C24.6052 18.3102 25.3041 10.0418 25.6294 1.08137C25.6418 0.738793 25.367 0.454162 25.0242 0.454162H5.97575V0.454102Z" fill="#E5EEF9"/>
<path d="M8.13184 28.25V29.6377C8.13184 30.1393 8.53847 30.5459 9.04004 30.5459H22.0246C22.5262 30.5459 22.9328 30.1393 22.9328 29.6377V28.25H8.13184Z" fill="#D5E3F4"/>
<path d="M7.62866 9.35571C8.05364 15.2635 8.70621 20.7027 9.66388 26.4334H21.3359C22.2937 20.702 22.9463 15.2633 23.3712 9.35571H7.62866Z" fill="#98BCE5"/>
<path d="M25.0242 0.454102H22.6214C22.9642 0.454102 23.239 0.738732 23.2266 1.08131C22.9013 10.0418 22.2025 18.3101 20.4655 28.2499H22.8683C24.6053 18.3101 25.3041 10.0417 25.6294 1.08131C25.6418 0.738732 25.367 0.454102 25.0242 0.454102Z" fill="#D5E3F4"/>
<path d="M20.5299 28.25V29.6377C20.5299 30.1393 20.1233 30.5459 19.6217 30.5459H22.0245C22.5261 30.5459 22.9327 30.1393 22.9327 29.6377V28.25H20.5299Z" fill="#B3CEEC"/>
<path d="M20.9684 9.35571C20.5435 15.2634 19.8909 20.7021 18.9331 26.4334H21.3359C22.2937 20.702 22.9463 15.2633 23.3712 9.35571H20.9684Z" fill="#7BACDF"/>
<path d="M23.8229 22.2501C23.5744 22.2144 23.3443 22.386 23.3083 22.6343C23.1096 24.002 22.8896 25.4067 22.6542 26.8093C22.6542 26.8098 22.654 26.8104 22.654 26.8109C22.5997 27.1347 22.5435 27.4647 22.4862 27.7959H8.51381C7.27387 20.6216 6.49735 13.8222 6.0731 6.43346C6.05875 6.18303 5.8426 5.99189 5.59375 6.00612C5.34333 6.02053 5.152 6.2351 5.16641 6.48547C5.59926 14.0256 6.39745 20.955 7.67772 28.2889V29.6378C7.67772 30.389 8.28888 31.0001 9.04002 31.0001H22.0245C22.7757 31.0001 23.3868 30.389 23.3868 29.6378V28.2501C23.3868 28.1935 23.376 28.1395 23.3571 28.0894C23.4229 27.7102 23.4875 27.3316 23.5497 26.9612C23.5498 26.9605 23.5499 26.9599 23.55 26.9593C23.7864 25.5502 24.0074 24.139 24.207 22.7648C24.2431 22.5166 24.0711 22.2862 23.8229 22.2501ZM22.4786 29.6378C22.4786 29.8882 22.275 30.0919 22.0245 30.0919H9.04002C8.7896 30.0919 8.58592 29.8882 8.58592 29.6378V28.7042H22.4786V29.6378Z" fill="black"/>
<path d="M25.0242 0H5.97583C5.39155 0 4.91614 0.475051 4.91614 1.0589C4.91614 1.07113 4.91632 1.08337 4.9168 1.09784C4.95755 2.21832 5.00387 3.31755 5.05443 4.36501C5.0666 4.61549 5.28015 4.80894 5.52996 4.79664C5.78044 4.78453 5.97371 4.57165 5.9616 4.32117C5.91116 3.27728 5.86497 2.18175 5.82446 1.06696L5.82434 1.0589C5.82434 0.975773 5.89227 0.908203 5.97583 0.908203H25.0242C25.1077 0.908203 25.1757 0.975773 25.1756 1.06484C24.911 8.35293 24.4251 14.3596 23.6001 20.5408C23.5669 20.7894 23.7416 21.0178 23.9901 21.051C24.0105 21.0537 24.0307 21.0551 24.0508 21.0551C24.2748 21.0551 24.4698 20.8892 24.5003 20.661C25.3293 14.4496 25.8175 8.41614 26.0832 1.09911C26.0837 1.08561 26.084 1.07216 26.084 1.05884C26.0839 0.47499 25.6086 0 25.0242 0V0Z" fill="black"/>
<path d="M9.66399 26.8876H21.336C21.5579 26.8876 21.7473 26.7272 21.7839 26.5083C22.7528 20.7108 23.4011 15.2707 23.8242 9.38829C23.8431 9.12527 23.6346 8.90161 23.3713 8.90161H7.62877C7.36502 8.90161 7.15698 9.1257 7.17587 9.38829C7.59898 15.271 8.24731 20.711 9.21612 26.5083C9.25269 26.7272 9.44208 26.8876 9.66399 26.8876ZM22.8828 9.80981C22.4708 15.3494 21.854 20.512 20.9512 25.9794H10.0488C9.14607 20.5122 8.52922 15.3497 8.11726 9.80981H22.8828Z" fill="black"/>
</g>
<defs>
<clipPath id="clip0">
<rect width="31" height="31" fill="white"/>
</clipPath>
</defs>
</svg>
