<svg width="36" height="36" viewBox="0 0 36 36" fill="none" xmlns="http://www.w3.org/2000/svg">
<path d="M3.16406 4.28906H32.8359C34.5784 4.28906 36 5.70909 36 7.45312V28.5469C36 30.285 34.5847 31.7109 32.8359 31.7109H3.16406C1.42594 31.7109 0 30.2957 0 28.5469V7.45312C0 5.715 1.41525 4.28906 3.16406 4.28906ZM3.60098 6.39844L17.9329 20.7304L32.3888 6.39844H3.60098ZM33.8906 28.1101V7.87985L23.7319 17.9514L33.8906 28.1101ZM32.3991 29.6016L22.234 19.4365L18.6722 22.9677C18.2599 23.3765 17.5945 23.3752 17.1839 22.9645L13.7109 19.4915L3.60091 29.6016H32.3991ZM2.10938 28.11L12.2194 18L2.10938 7.88991V28.11Z" fill="black"/>
</svg>
