<svg width="34" height="34" viewBox="0 0 34 34" fill="none" xmlns="http://www.w3.org/2000/svg">
<path d="M3.01016 18.7978L0.374088 21.5204C-0.135581 22.0469 -0.122898 22.8877 0.402577 23.3985C0.660101 23.6488 0.992864 23.7733 1.32543 23.7733C1.67141 23.7733 2.01712 23.6384 2.27697 23.37L4.91304 20.6473C5.42271 20.1208 5.41002 19.28 4.88455 18.7693C4.35907 18.2585 3.5199 18.2713 3.01016 18.7978Z" fill="#D5D5D5"/>
<path d="M9.1461 19.6561C8.4141 19.6561 7.82056 20.2508 7.82056 20.9842V32.6718C7.82056 33.4052 8.41403 33.9999 9.1461 33.9999H9.14616C9.87816 33.9999 10.4717 33.4053 10.4717 32.6718L10.4716 20.9842C10.4716 20.2508 9.87816 19.6561 9.1461 19.6561Z" fill="#D5D5D5"/>
<path d="M14.3158 16.7344C13.5838 16.7344 12.9903 17.329 12.9903 18.0625V32.6718C12.9903 33.4053 13.5838 34 14.3158 34C15.0479 34 15.6414 33.4053 15.6414 32.6718V18.0624C15.6413 17.329 15.0479 16.7344 14.3158 16.7344Z" fill="#D5D5D5"/>
<path d="M30.0234 0H26.0468C25.3147 0 24.7212 0.594631 24.7212 1.32812C24.7212 2.06161 25.3147 2.65624 26.0468 2.65624H29.5404L19.8072 12.4063C19.5461 12.668 19.2044 12.8169 18.8664 12.8169C18.8593 12.8169 18.8521 12.8168 18.845 12.8167C18.5195 12.8105 18.1869 12.661 17.9327 12.4063L16.3743 10.8448C15.6113 10.0804 14.5985 9.63725 13.5953 9.629C13.5855 9.62893 13.5758 9.62893 13.5661 9.62893C12.5278 9.62893 11.4909 10.0837 10.716 10.8797L7.87542 13.7387C7.35891 14.2586 7.36077 15.0994 7.87961 15.617C8.13819 15.8749 8.47647 16.0039 8.81474 16.0039C9.15494 16.0039 9.49514 15.8734 9.75413 15.6127L12.5999 12.7486C12.6038 12.7447 12.6076 12.7408 12.6115 12.7369C12.8882 12.4512 13.249 12.2818 13.5736 12.2851C13.8824 12.2876 14.2287 12.4513 14.4998 12.723L16.0582 14.2844C16.8037 15.0314 17.7759 15.4533 18.7957 15.4724C19.8561 15.4923 20.9089 15.0593 21.6819 14.2846L31.3489 4.60069V7.90233C31.3489 8.63582 31.9424 9.23045 32.6745 9.23045C33.4065 9.23045 34 8.63582 34 7.90233V3.98436C34 1.78742 32.2161 0 30.0234 0Z" fill="#D5D5D5"/>
<path d="M3.91477 25.6327C3.18098 25.6302 2.58472 26.2255 2.58472 26.9608V32.6717C2.58472 33.4051 3.17819 33.9998 3.91026 33.9998H3.91032C4.64239 33.9998 5.23586 33.4052 5.23586 32.6717V26.9608C5.2358 26.2291 4.64518 25.6352 3.91477 25.6327Z" fill="#D5D5D5"/>
<path d="M29.9571 11.3555C29.2251 11.3555 28.6316 11.9501 28.6316 12.6836V32.6719C28.6316 33.4053 29.2251 34 29.9571 34H29.9572C30.6892 34 31.2827 33.4054 31.2827 32.6719V12.6836C31.2827 11.95 30.6893 11.3555 29.9571 11.3555Z" fill="#D5D5D5"/>
<path d="M19.4853 18.3944C18.7533 18.3944 18.1598 18.989 18.1598 19.7225V32.6717C18.1598 33.4052 18.7533 33.9999 19.4853 33.9999H19.4854C20.2174 33.9999 20.8109 33.4052 20.8109 32.6717V19.7225C20.8109 18.989 20.2175 18.3944 19.4853 18.3944Z" fill="#D5D5D5"/>
<path d="M24.7164 15.8711C23.9862 15.8738 23.3958 16.4677 23.3958 17.1992V32.6719C23.3958 33.4054 23.9892 34 24.7213 34H24.7214C25.4534 34 26.0469 33.4054 26.0469 32.6719V17.1992C26.0468 16.4638 25.4504 15.8684 24.7164 15.8711Z" fill="#D5D5D5"/>
</svg>
