<svg width="34" height="35" viewBox="0 0 34 35" fill="none" xmlns="http://www.w3.org/2000/svg">
<g clip-path="url(#clip0)">
<g clip-path="url(#clip1)">
<path d="M32.9365 16.938H19.4785C18.892 16.938 18.416 16.4621 18.416 15.8756C18.416 15.2891 18.892 14.8131 19.4785 14.8131H32.9365C33.523 14.8131 33.999 15.2891 33.999 15.8756C33.999 16.4621 33.523 16.938 32.9365 16.938Z" fill="#ED6161"/>
<path d="M27.6242 22.2504C27.3521 22.2504 27.0803 22.1469 26.8733 21.9389C26.4583 21.5236 26.4583 20.8507 26.8733 20.4357L31.4349 15.8743L26.8733 11.3127C26.4583 10.8976 26.4583 10.2248 26.8733 9.80975C27.2886 9.39447 27.9614 9.39447 28.3765 9.80975L33.6888 15.1221C34.1038 15.5371 34.1038 16.21 33.6888 16.625L28.3765 21.9373C28.1682 22.1469 27.8963 22.2504 27.6242 22.2504Z" fill="#ED6161"/>
<path d="M11.3331 35C11.0298 35 10.7422 34.9575 10.4548 34.8683L1.92935 32.0279C0.769355 31.6228 0 30.5419 0 29.3336V3.83443C0 2.27186 1.27076 1.0011 2.83333 1.0011C3.1363 1.0011 3.42397 1.04364 3.71163 1.13287L12.2368 3.9732C13.397 4.37837 14.1661 5.45926 14.1661 6.6675V32.1667C14.1661 33.7293 12.8956 35 11.3331 35ZM2.83333 3.12603C2.44373 3.12603 2.12493 3.44482 2.12493 3.83443V29.3336C2.12493 29.6353 2.32752 29.9157 2.61648 30.0163L11.1019 32.844C11.1629 32.8637 11.2423 32.8751 11.3331 32.8751C11.7227 32.8751 12.0412 32.5563 12.0412 32.1667V6.6675C12.0412 6.36583 11.8386 6.08543 11.5497 5.98478L3.06419 3.15716C3.00323 3.13745 2.92386 3.12603 2.83333 3.12603Z" fill="#ED6161"/>
<path d="M21.6034 12.3342C21.0169 12.3342 20.5409 11.8582 20.5409 11.2717V4.8969C20.5409 3.92081 19.7464 3.12603 18.7703 3.12603H2.83334C2.24686 3.12603 1.77087 2.65005 1.77087 2.06357C1.77087 1.47708 2.24686 1.0011 2.83334 1.0011H18.7703C20.9194 1.0011 22.6659 2.74784 22.6659 4.8969V11.2717C22.6659 11.8582 22.1899 12.3342 21.6034 12.3342Z" fill="#ED6161"/>
<path d="M18.7704 30.7501H13.1037C12.5172 30.7501 12.0413 30.2741 12.0413 29.6876C12.0413 29.1011 12.5172 28.6251 13.1037 28.6251H18.7704C19.7465 28.6251 20.541 27.8303 20.541 26.8543V20.4795C20.541 19.893 21.017 19.417 21.6035 19.417C22.1899 19.417 22.6659 19.893 22.6659 20.4795V26.8543C22.6659 29.0033 20.9194 30.7501 18.7704 30.7501Z" fill="#ED6161"/>
</g>
</g>
<defs>
<clipPath id="clip0">
<rect width="34" height="34" fill="white" transform="translate(0 0.5)"/>
</clipPath>
<clipPath id="clip1">
<rect width="34" height="34" fill="white" transform="translate(0 1)"/>
</clipPath>
</defs>
</svg>
