<svg width="248" height="138" viewBox="0 0 248 138" fill="none" xmlns="http://www.w3.org/2000/svg">
<rect y="33.7238" width="14.0084" height="103.766" fill="#989491"/>
<path d="M86.3849 33.9833C90.2532 33.9833 93.4749 30.7899 92.4129 27.0702C90.5755 20.6345 86.1956 14.6717 79.7126 9.95346C70.9557 3.58037 59.0787 6.80457e-07 46.6945 0C34.3104 -6.80456e-07 22.4334 3.58037 13.6765 9.95346C4.91959 16.3266 1.86996e-06 24.9703 0 33.9832H14.0084C14.0084 27.6742 17.4521 21.6236 23.5819 17.1624C29.7118 12.7012 38.0256 10.195 46.6945 10.195C55.3635 10.195 63.6773 12.7012 69.8072 17.1624C73.6713 19.9746 76.468 23.4184 78.0075 27.1605C79.4793 30.7378 82.5166 33.9833 86.3849 33.9833Z" fill="#989491"/>
<path d="M14.0084 60.1841H45.1381C49.4362 60.1841 52.9205 63.6685 52.9205 67.9666C52.9205 72.2647 49.4362 75.749 45.1381 75.749H14.0084V60.1841Z" fill="#989491"/>
<g clip-path="url(#clip0)">
<path d="M96.56 66.3758C97.317 72.8325 94.1692 75.749 87.673 75.749C81.1767 75.749 78.3654 72.8141 79.2656 66.3758C80.2237 59.5207 87.673 51.7278 87.673 51.7278C87.673 51.7278 95.7987 59.8804 96.56 66.3758Z" fill="#489FB5"/>
<path d="M85.2726 75.5486C81.7212 75.5486 79.2636 74.7072 77.7593 72.9765C76.2899 71.2863 75.803 68.8379 76.2707 65.4921C77.2448 58.5254 84.5296 50.8357 84.8389 50.512C84.9509 50.3952 85.1049 50.328 85.2666 50.3268C85.4318 50.3212 85.5838 50.3884 85.6978 50.5028C86.0355 50.8421 93.9788 58.879 94.7557 65.5053C95.1326 68.719 94.5661 71.2002 93.0722 72.8809C91.4984 74.6508 88.8744 75.5486 85.2726 75.5486ZM85.283 51.805C83.7083 53.5633 78.2494 60.008 77.4593 65.6585C77.0424 68.6398 77.4369 70.7758 78.6647 72.1884C79.9277 73.6414 82.0888 74.3476 85.2726 74.3476C88.5171 74.3476 90.8391 73.5854 92.1749 72.0828C93.4315 70.6694 93.8988 68.5034 93.5635 65.6449C92.935 60.28 86.9596 53.5893 85.283 51.805Z" fill="black"/>
</g>
<rect x="119.849" y="33.7239" width="14.0084" height="103.766" fill="#989491"/>
<rect x="119.85" y="6.22595" width="14.0084" height="14.0084" rx="7.00418" fill="#989491"/>
<path d="M240.996 123.481C244.864 123.481 248 126.617 248 130.485C248 134.354 244.864 137.49 240.996 137.49H177.18C173.312 137.49 170.176 134.354 170.176 130.485C170.176 126.617 173.312 123.481 177.18 123.481H240.996Z" fill="#989491"/>
<path d="M170.176 13.2301C170.176 9.36182 173.312 6.22595 177.181 6.22595C181.049 6.22595 184.185 9.36183 184.185 13.2301V137.49H180.176C174.654 137.49 170.176 133.012 170.176 127.49V13.2301Z" fill="#989491"/>
<defs>
<clipPath id="clip0">
<rect width="25.4226" height="25.4226" fill="white" transform="translate(73.6738 50.3264)"/>
</clipPath>
</defs>
</svg>
