<svg width="34" height="35" viewBox="0 0 34 35" fill="none" xmlns="http://www.w3.org/2000/svg">
<path d="M13.8123 7.99157C12.9335 7.99157 12.2185 7.21598 12.2185 6.26275C12.2185 5.30953 12.9335 4.53394 13.8123 4.53394C14.6911 4.53394 15.4061 5.30953 15.4061 6.26275C15.4061 7.21598 14.6911 7.99157 13.8123 7.99157Z" fill="#D5D5D5"/>
<path d="M33.9661 30.695L31.3762 11.9664C31.1504 10.3311 29.8799 9.14407 28.3551 9.14407H18.4899C19.358 7.36267 19.3428 5.26705 18.4349 3.4814C17.517 1.67587 15.8525 0.562364 13.982 0.502647C13.87 0.499118 13.755 0.499118 13.6423 0.502647C11.7722 0.562291 10.1077 1.67587 9.18979 3.4814C8.28233 5.26633 8.26679 7.36101 9.13494 9.14407H5.64487C4.12008 9.14407 2.84956 10.3311 2.62377 11.9661L0.033862 30.695C-0.0980907 31.6499 0.159373 32.6172 0.740243 33.3488C1.32118 34.0804 2.16483 34.5 3.05496 34.5H30.945C31.8351 34.5 32.6788 34.0804 33.2597 33.3488C33.8406 32.6173 34.0981 31.65 33.9661 30.695ZM11.0507 4.59462C11.6101 3.49444 12.5775 2.84282 13.7045 2.80687C13.7401 2.80572 13.7763 2.80522 13.8125 2.80522C13.8486 2.80522 13.8848 2.80579 13.92 2.80687C15.0474 2.84282 16.0148 3.49444 16.5742 4.59462C17.1584 5.74385 17.1422 7.10068 16.5309 8.22456L13.8125 13.1891L11.0948 8.226C10.4827 7.10183 10.4662 5.74428 11.0507 4.59462ZM31.6496 31.8447C31.5457 31.9755 31.316 32.1951 30.945 32.1951H11.695C11.7446 31.6548 11.9751 30.8429 12.8467 30.3241C13.3611 30.0179 13.5493 29.3173 13.267 28.7592C12.9847 28.2012 12.3387 27.9971 11.8243 28.3033C10.699 28.973 9.9572 30.0247 9.67902 31.3443C9.61401 31.6525 9.5826 31.9414 9.56991 32.1951H3.05496C2.684 32.1951 2.4543 31.9755 2.35044 31.8447C2.24658 31.7138 2.08049 31.4349 2.13547 31.037L4.72539 12.308C4.79412 11.8104 5.18081 11.4493 5.64494 11.4493H10.3881L12.4498 15.2146C12.7386 15.7435 13.2479 16.0593 13.8125 16.0593C14.377 16.0593 14.8863 15.7435 15.1742 15.216L17.2368 11.4493H28.3552C28.8193 11.4493 29.206 11.8104 29.2747 12.3082L31.8647 31.037C31.9195 31.4348 31.7535 31.7138 31.6496 31.8447Z" fill="#D5D5D5"/>
<path d="M18.3986 14.966C17.8417 14.7645 17.2401 15.0911 17.0546 15.6949C16.869 16.2988 17.1699 16.9515 17.7266 17.1528C17.7375 17.1567 18.8263 17.579 19.1796 18.7289C19.328 19.2119 19.7426 19.5174 20.1875 19.5174C20.2989 19.5174 20.4122 19.4982 20.5237 19.4578C21.0804 19.2566 21.3813 18.6039 21.1957 18C20.5043 15.7504 18.4842 14.997 18.3986 14.966Z" fill="#D5D5D5"/>
<path d="M19.2994 22.2252C18.746 22.0133 18.1391 22.3282 17.9438 22.9285C17.3442 24.7715 15.2887 25.5631 15.2455 25.5794C14.6911 25.7822 14.3919 26.4334 14.5772 27.0359C14.7256 27.5189 15.1402 27.8243 15.5851 27.8243C15.6964 27.8243 15.8098 27.8052 15.9212 27.7648C16.0463 27.7197 18.9951 26.6237 19.9478 23.6956C20.1431 23.0954 19.8528 22.4371 19.2994 22.2252Z" fill="#D5D5D5"/>
</svg>
