<svg width="34" height="35" viewBox="0 0 34 35" fill="none" xmlns="http://www.w3.org/2000/svg">
<g clip-path="url(#clip0)">
<path d="M11.472 26.2522C10.6574 27.4716 10.6574 29.0617 11.472 30.2811L12.415 29.6522C11.8544 28.8135 11.8544 27.7198 12.415 26.8811L11.472 26.2522Z" fill="#D5D5D5"/>
<path d="M22.3694 28.8335H23.5027V29.9668H22.3694V28.8335Z" fill="#D5D5D5"/>
<path d="M24.636 27.7002H25.7693V28.8335H24.636V27.7002Z" fill="#D5D5D5"/>
<path d="M24.0695 30.5334H25.2028V31.6668H24.0695V30.5334Z" fill="#D5D5D5"/>
<path d="M7.06958 18.6337H8.20291V19.767H7.06958V18.6337Z" fill="#D5D5D5"/>
<path d="M8.76971 20.9003H9.90304V22.0336H8.76971V20.9003Z" fill="#D5D5D5"/>
<path d="M7.06958 23.167H8.20291V24.3003H7.06958V23.167Z" fill="#D5D5D5"/>
<path d="M28.5 9.2124C28.1782 9.12967 27.8506 9.07267 27.5196 9.04224L28.0359 3.38478C28.057 3.15153 27.9327 2.92962 27.7227 2.82587C27.513 2.72183 27.2609 2.7578 27.0886 2.91607L25.2201 4.62683L23.4493 0.830384C23.3574 0.622314 23.1474 0.49144 22.9202 0.500571C22.6945 0.506935 22.4941 0.646663 22.41 0.856393L20.8337 4.79285L18.7857 2.91607C18.6064 2.75144 18.3419 2.71989 18.1288 2.83749C17.9158 2.95508 17.8015 3.1958 17.8452 3.43513L18.8651 9.04113C18.4086 9.08844 17.9589 9.1875 17.5251 9.33636C16.2745 9.75831 15.192 10.5698 14.4361 11.6517V6.35974C14.4361 6.19179 14.3617 6.03214 14.2328 5.92451L8.56618 1.19866C8.34095 1.01079 8.00948 1.02573 7.80224 1.23324L6.19855 2.83666C6.08511 2.95038 6.02534 3.10643 6.03365 3.26663C6.04195 3.42683 6.11776 3.57597 6.24227 3.67724L11.0362 7.56997V12.9671H8.47266L9.54925 11.8902C9.77033 11.6691 9.77033 11.3103 9.54925 11.0892C7.54603 9.17007 4.37656 9.20382 2.41483 11.1655C0.453383 13.127 0.41935 16.2967 2.33846 18.2997C2.55982 18.521 2.9184 18.521 3.13976 18.2997L4.42664 17.0128L5.31287 32.889C5.35631 33.7926 6.10254 34.5023 7.00731 34.5001H17.2694C17.2808 34.5001 17.2905 34.4943 17.3012 34.4938H17.3214C17.573 34.4752 17.8192 34.4127 18.0491 34.3089C18.535 34.4334 19.0344 34.4976 19.5361 34.5001H26.9026C27.7908 34.5026 28.6687 34.3117 29.4753 33.9401C31.7026 32.9307 33.1342 30.7122 33.1359 28.2669V15.2337C33.1315 12.4087 31.23 9.93899 28.5 9.2124ZM31.9129 29.2046L31.3225 28.7768L32.0026 28.2669C32.0017 28.5815 31.9718 28.8955 31.9129 29.2046ZM23.5453 33.2846L23.5146 33.289C22.1641 33.5325 20.7737 33.1897 19.6907 32.3466L20.6174 30.6467C21.3606 29.2801 21.5462 27.6792 21.1356 26.1787C21.9961 26.7788 23.1629 26.6745 23.9033 25.9316C24.118 25.7092 24.115 25.3558 23.8964 25.1372C23.6778 24.9187 23.3245 24.9156 23.102 25.1303C23.0539 25.1785 23.0008 25.2216 22.9435 25.2584C22.9377 24.9994 22.9554 24.7405 22.9961 24.4848V24.4657C23.0442 24.2272 23.1123 23.9934 23.1994 23.7662C23.3577 23.7845 23.5201 23.8094 23.6925 23.8462L23.7226 23.852C24.9736 24.1398 26.059 24.9126 26.7405 26.0002C26.9513 26.3325 27.1168 26.6919 27.2324 27.0682C27.3915 27.5461 27.4715 28.0466 27.4693 28.5502C27.4709 29.2926 27.3008 30.0252 26.9724 30.6909C26.8462 30.9366 26.7026 31.1729 26.5427 31.3982C25.818 32.3837 24.7472 33.0583 23.5453 33.2863V33.2846ZM17.2445 33.3599C17.2205 33.3602 17.1967 33.3624 17.1731 33.3668C17.1054 33.366 17.0378 33.3596 16.9714 33.348C16.7515 33.3081 16.5489 33.2027 16.3898 33.0458L16.2006 32.8505C15.4128 32.07 14.1434 32.07 13.3554 32.8505L13.1681 33.0375C12.919 33.2863 12.5671 33.403 12.2187 33.353C11.8704 33.3026 11.566 33.0909 11.3978 32.7819L9.93579 30.1005C9.1273 28.6094 9.14446 26.8071 9.98172 25.332C10.3251 24.7222 10.9587 24.3326 11.6579 24.3008C11.6941 24.2986 11.7307 24.2983 11.7672 24.3003C12.4133 24.3016 13.0214 24.6057 13.4104 25.1217C13.4179 25.1314 13.4262 25.1417 13.4354 25.1519C13.4445 25.1621 13.4569 25.1735 13.4672 25.1854L13.4705 25.1893C13.8022 25.5916 14.3006 25.819 14.8218 25.806C15.3428 25.793 15.8293 25.5412 16.1405 25.1228C16.3486 24.8492 16.6211 24.6312 16.9341 24.4884C16.9944 24.4582 17.0578 24.4339 17.1225 24.4151C17.3491 24.3365 17.5879 24.298 17.8275 24.3019C18.1756 24.3061 18.5162 24.4004 18.8169 24.5756C18.8928 24.6204 18.9658 24.6694 19.0358 24.7228C19.2527 24.8915 19.4345 25.101 19.5712 25.3395C19.7167 25.5921 19.8388 25.8577 19.9356 26.1328C20.3966 27.4412 20.282 28.8839 19.6205 30.1032L18.1551 32.7893C18.0561 32.9753 17.9025 33.1269 17.7155 33.2237C17.5713 33.3059 17.41 33.3532 17.2445 33.3615V33.3599ZM19.5361 10.1338H19.7967L19.4448 10.4038L19.0895 10.154C19.2375 10.141 19.3864 10.1338 19.5361 10.1338ZM21.6552 10.1338H24.3374L25.6974 11.0892L23.1756 13.0288L20.4173 11.0872L21.6552 10.1338ZM26.935 10.1338L26.6362 10.3604L26.3069 10.1338H26.9026H26.935ZM27.3368 24.8821C26.7186 24.0961 25.914 23.4765 24.9957 23.0801L26.8459 21.618L29.317 23.318L27.3368 24.8821ZM20.8354 25.1276C20.8152 25.153 20.7972 25.1801 20.7814 25.2086C20.7112 25.0578 20.6359 24.9104 20.5548 24.7692C20.471 24.629 20.3761 24.495 20.2715 24.3691C20.8055 24.0623 21.3949 23.8631 22.0055 23.7834C21.9601 23.9436 21.9148 24.1052 21.8827 24.2765C21.8796 24.2906 21.8774 24.305 21.8763 24.3193C21.8265 24.6309 21.8035 24.9463 21.8082 25.2617C21.7468 25.2236 21.6898 25.1785 21.6383 25.1276C21.5318 25.021 21.3871 24.9615 21.2363 24.9618C21.0858 24.9624 20.9414 25.0227 20.8354 25.1298V25.1276ZM15.1207 24.5578C15.1425 23.295 15.7451 22.113 16.7542 21.3535C17.0046 21.1656 17.0555 20.8106 16.8677 20.5602C16.6798 20.3098 16.3248 20.2592 16.0744 20.4468C15.36 20.985 14.7961 21.6977 14.4361 22.5162V17.5003H17.615L17.6106 17.5847V17.5908L17.2982 23.2082C17.1173 23.2358 16.9388 23.2801 16.7656 23.3401C16.6494 23.375 16.5365 23.4204 16.4286 23.4757C15.9565 23.6954 15.5462 24.0283 15.2333 24.4447C15.2015 24.4876 15.1635 24.5258 15.1207 24.5578ZM24.6852 21.1269C24.4963 20.8779 24.1413 20.8289 23.892 21.0176C23.3793 21.4061 22.9416 21.8848 22.6007 22.4301L21.0792 21.3234L23.5594 19.3589L25.8689 20.9454L24.1061 22.343C24.2522 22.1891 24.4102 22.0469 24.5782 21.9174C24.8247 21.7279 24.8726 21.3751 24.6852 21.1269ZM24.4869 18.6251L26.6832 16.8866L28.9653 18.4931L26.7961 20.2122L24.4869 18.6251ZM23.5101 17.9536L20.9356 16.1816L23.2022 14.4357L25.7143 16.2043L23.5101 17.9536ZM22.5802 18.6901L20.1276 20.6316L18.6374 19.5476L18.7303 17.8811L19.9893 16.9074L22.5802 18.6901ZM18.5624 20.895L19.2046 21.3621L18.5054 21.9157L18.5624 20.895ZM18.812 16.3878L18.8272 16.1103L19.0101 16.2353L18.812 16.3878ZM20.1558 22.0544L21.1663 22.7912C20.5277 22.9547 19.9212 23.2253 19.3728 23.5914C19.1335 23.4541 18.877 23.3495 18.61 23.2807L20.1558 22.0544ZM27.7731 20.8842L29.9343 19.1718L32.0026 20.6275V21.1869L30.2459 22.5804L27.7731 20.8842ZM29.8945 17.7615L27.6098 16.154L30.0934 14.1875L32.0026 15.5275V16.0876L29.8945 17.7615ZM26.6431 15.4733L24.1451 13.7166L26.6663 11.777L29.1272 13.5085L26.6431 15.4733ZM22.2332 13.7529L19.9541 15.5068L18.9008 14.7802L18.9694 13.5647C18.978 13.4092 18.9221 13.2568 18.8147 13.1439C18.7077 13.0307 18.5585 12.9668 18.4027 12.9671H17.9719L19.4749 11.8111L22.2332 13.7529ZM17.8037 14.1004L17.6781 16.367H14.4361V14.1004H17.8037ZM13.3028 16.367H12.1695V14.1004H13.3028V16.367ZM13.3028 17.5003V23.5687C12.9517 23.3739 12.5674 23.2472 12.1695 23.1946V17.5003H13.3028ZM28.5885 28.1863L29.4163 28.7893L28.5254 29.4566C28.5744 29.157 28.6001 28.8537 28.6026 28.5502C28.6026 28.4276 28.5957 28.307 28.5885 28.1863ZM28.2365 26.5287C28.1549 26.2957 28.0573 26.0686 27.9446 25.8489L30.2918 23.989L32.0026 25.1649V26.8502L30.3648 28.0782L28.2365 26.5287ZM32.0026 23.79L31.2212 23.253L32.0026 22.6335V23.79ZM32.0026 19.241L30.8629 18.4375L32.0026 17.5335V19.241ZM31.0206 13.451L31.5106 13.0628C31.6573 13.3738 31.7712 13.6992 31.8507 14.034L31.0206 13.451ZM30.913 12.0908L30.0538 12.7709L27.6071 11.0493L28.4665 10.3881C29.4354 10.6955 30.2882 11.289 30.913 12.0908ZM26.3852 9.00046H22.1262L26.7729 4.74138L26.3852 9.00046ZM22.975 2.49328L24.3441 5.43034L22.936 6.71943L21.7261 5.61046L22.975 2.49328ZM22.0985 7.48863L20.4489 9.00046H20.0086L19.2619 4.88969L22.0985 7.48863ZM17.628 10.5112L18.5043 11.1276L16.1809 12.9137L15.337 12.3351C15.904 11.5142 16.7011 10.8795 17.628 10.5112ZM11.9614 6.86054L7.44421 3.19386L8.23747 2.40059L13.3028 6.6248V12.9671H12.1695V7.30048C12.1695 7.12976 12.0923 6.96818 11.9598 6.86054H11.9614ZM11.0362 14.1004V16.367H5.52592L5.50213 15.9379L6.34243 15.097L6.35156 15.0879L7.33934 14.1004H11.0362ZM5.94538 10.7287C6.80146 10.7275 7.63484 11.0037 8.32076 11.5164L6.70572 13.1311L6.7013 13.1358L6.26938 13.5675L5.61557 10.7444C5.72486 10.7356 5.83471 10.7287 5.94538 10.7287ZM3.13976 11.8902C3.52961 11.5009 3.99694 11.1976 4.51103 10.9995L5.21022 14.0193L2.15032 13.5783C2.33238 12.9411 2.6727 12.3603 3.13976 11.8902ZM2.76816 17.0706C2.26072 16.3853 1.98928 15.5538 1.99454 14.7008L4.74178 15.0976L2.76816 17.0706ZM6.44619 32.8306L5.58956 17.5003H11.0362V23.2558C10.7285 23.3269 10.4324 23.4411 10.1571 23.5958C9.67487 23.8808 9.27478 24.2861 8.99615 24.7723C7.96493 26.5893 7.94363 28.81 8.93943 30.6467L10.4009 33.3264C10.4089 33.3405 10.4192 33.3535 10.4269 33.3679H7.00731C6.70655 33.3682 6.45892 33.1311 6.44619 32.8306ZM26.1404 33.3668C26.4873 33.1181 26.8069 32.8333 27.093 32.5168L28.0484 33.2356C27.6727 33.3231 27.2883 33.3671 26.9026 33.3668H26.1404ZM29.3001 32.7575L27.7606 31.5993C27.8104 31.5155 27.8597 31.4258 27.9084 31.3359L30.3751 29.4868L31.5543 30.3454C31.0923 31.3777 30.299 32.2266 29.3001 32.7575Z" fill="#D5D5D5"/>
</g>
<defs>
<clipPath id="clip0">
<rect width="34" height="34" fill="white" transform="translate(0 0.5)"/>
</clipPath>
</defs>
</svg>
