<svg width="35" height="35" viewBox="0 0 35 35" fill="none" xmlns="http://www.w3.org/2000/svg">
<path d="M17.4858 3.33337C9.66581 3.33337 3.33331 9.68004 3.33331 17.5C3.33331 25.32 9.66581 31.6667 17.4858 31.6667C25.32 31.6667 31.6666 25.32 31.6666 17.5C31.6666 9.68004 25.32 3.33337 17.4858 3.33337ZM17.5 28.8334C11.2383 28.8334 6.16665 23.7617 6.16665 17.5C6.16665 11.2384 11.2383 6.16671 17.5 6.16671C23.7616 6.16671 28.8333 11.2384 28.8333 17.5C28.8333 23.7617 23.7616 28.8334 17.5 28.8334Z" fill="#D5D5D5"/>
<path d="M18.2083 10.4166H16.0833V18.9166L23.5208 23.3791L24.5833 21.6366L18.2083 17.8541V10.4166Z" fill="#D5D5D5"/>
</svg>
