<svg width="425" height="138" viewBox="0 0 425 138" fill="none" xmlns="http://www.w3.org/2000/svg">
<path fill-rule="evenodd" clip-rule="evenodd" d="M0 81.9156L9.23913 70.9156C17.4517 60.9156 35.93 39.9156 53.3816 33.9156C70.8333 27.9156 88.285 35.9156 106.763 45.9156C124.215 56.9156 141.667 68.9156 159.118 74.9156C177.597 81.9156 195.048 81.9156 212.5 62.9156C229.952 43.9156 248.43 6.91563 265.882 0.915628C283.333 -5.08437 300.785 19.9156 319.263 31.9156C336.715 43.9156 354.167 43.9156 371.618 37.9156C390.097 31.9156 407.548 19.9156 415.761 12.9156L425 6.91563V93.9156H415.761C407.548 93.9156 390.097 93.9156 371.618 93.9156C354.167 93.9156 336.715 93.9156 319.263 93.9156C300.785 93.9156 283.333 93.9156 265.882 93.9156C248.43 93.9156 229.952 93.9156 212.5 93.9156C195.048 93.9156 177.597 93.9156 159.118 93.9156C141.667 93.9156 124.215 93.9156 106.763 93.9156C88.285 93.9156 70.8333 93.9156 53.3816 93.9156C35.93 93.9156 17.4517 93.9156 9.23913 93.9156H0V81.9156Z" fill="#4EAAE8"/>
<path fill-rule="evenodd" clip-rule="evenodd" d="M0 39L10.2657 51C20.5314 64 40.0362 88 60.5676 95C81.099 101 101.63 88 121.135 78C141.667 68 162.198 59 181.703 55C202.234 51 222.766 51 243.297 51C262.802 51 283.333 51 303.865 53C323.37 55 343.901 59 364.432 68C384.964 76 404.469 88 414.734 95L425 101V138H414.734C404.469 138 384.964 138 364.432 138C343.901 138 323.37 138 303.865 138C283.333 138 262.802 138 243.297 138C222.766 138 202.234 138 181.703 138C162.198 138 141.667 138 121.135 138C101.63 138 81.099 138 60.5676 138C40.0362 138 20.5314 138 10.2657 138H0V39Z" fill="#68B9EF"/>
<path fill-rule="evenodd" clip-rule="evenodd" d="M0 75.5015L12.3188 77.5015C23.6111 79.5015 47.2222 83.5015 70.8333 75.5015C94.4444 67.5015 118.056 46.5015 141.667 50.5015C165.278 54.5015 188.889 83.5015 212.5 96.5015C236.111 108.501 259.722 104.501 283.333 92.5015C306.944 79.5015 330.556 58.5015 354.167 56.5015C377.778 54.5015 401.389 71.5015 413.708 79.5015L425 87.5015V137.501H413.708C401.389 137.501 377.778 137.501 354.167 137.501C330.556 137.501 306.944 137.501 283.333 137.501C259.722 137.501 236.111 137.501 212.5 137.501C188.889 137.501 165.278 137.501 141.667 137.501C118.056 137.501 94.4444 137.501 70.8333 137.501C47.2222 137.501 23.6111 137.501 12.3188 137.501H0V75.5015Z" fill="#3F9CDA"/>
</svg>
